<?xml version="1.0" standalone="no"?>
<!DOCTYPE svg PUBLIC "-//W3C//DTD SVG 20010904//EN"
 "http://www.w3.org/TR/2001/REC-SVG-20010904/DTD/svg10.dtd">
<svg version="1.0" xmlns="http://www.w3.org/2000/svg"
 width="452.000000pt" height="452.000000pt" viewBox="0 0 452.000000 452.000000"
 preserveAspectRatio="xMidYMid meet">
<metadata>
Created by potrace 1.14, written by Peter Selinger 2001-2017
</metadata>
<g transform="translate(0.000000,452.000000) scale(0.100000,-0.100000)"
fill="#000000" stroke="none">
<path d="M0 2260 l0 -2260 2260 0 2260 0 0 2260 0 2260 -2260 0 -2260 0 0
-2260z m2855 394 c-6 -297 -5 -355 7 -348 7 4 64 51 127 103 l115 96 -42 3
-42 3 0 45 0 44 185 0 185 0 0 -45 0 -45 -66 0 -66 0 -72 -62 c-39 -34 -71
-69 -70 -77 1 -32 235 -471 251 -471 11 0 13 5 8 18 -5 9 -10 44 -12 77 -3 49
0 69 19 105 40 78 96 104 266 122 l102 12 0 115 c0 131 -11 166 -50 166 -16 0
-26 -6 -28 -17 -2 -12 3 -18 17 -18 16 0 22 -11 31 -56 15 -69 8 -98 -34 -140
-82 -82 -232 -65 -272 32 -33 80 -4 182 66 228 60 40 139 56 270 56 188 0 264
-32 315 -135 l30 -60 3 -225 c2 -124 5 -232 8 -240 9 -27 24 14 31 85 l6 65
45 0 44 0 -6 -57 c-22 -182 -81 -243 -238 -243 -78 0 -151 17 -177 41 -21 20
-22 20 -49 1 -82 -58 -216 -55 -334 6 -5 2 -8 -3 -8 -12 0 -14 -50 -16 -495
-16 l-495 0 0 45 0 45 45 0 45 0 0 510 0 510 -45 0 -45 0 0 45 0 45 216 0 217
0 -8 -356z m-536 308 c58 -29 76 -63 76 -147 0 -87 -17 -118 -85 -152 -55 -28
-129 -30 -186 -4 -108 49 -121 220 -23 293 53 40 148 44 218 10z m-1463 -34
c88 -20 95 -20 112 -5 10 10 30 17 45 17 24 0 26 -4 31 -52 3 -29 7 -113 8
-186 l3 -132 -40 0 c-38 1 -42 3 -73 59 -95 165 -200 243 -305 227 -83 -14
-127 -58 -127 -129 0 -65 49 -99 211 -147 258 -76 338 -133 381 -274 16 -55
20 -85 16 -151 -8 -113 -42 -188 -119 -259 -109 -102 -235 -125 -462 -86 -133
22 -157 21 -157 -5 0 -11 -11 -15 -39 -15 l-39 0 -6 158 c-4 86 -8 182 -9 212
l-2 55 36 3 c35 3 37 1 78 -68 57 -95 159 -202 224 -234 37 -19 67 -26 109
-26 101 0 158 47 158 130 0 84 -49 121 -240 180 -209 64 -302 134 -340 258
-39 124 -21 249 49 342 105 139 267 181 497 128z m905 -347 c153 -58 233 -214
215 -420 -21 -258 -172 -383 -446 -368 -197 10 -319 97 -365 260 -21 72 -21
224 -1 289 41 135 144 227 288 258 74 16 245 5 309 -19z m626 -378 c-4 -428
-8 -463 -62 -576 -38 -80 -79 -123 -153 -159 -63 -31 -72 -33 -177 -33 -97 0
-116 3 -159 25 -75 38 -109 87 -114 163 -6 116 59 181 175 174 69 -3 104 -26
129 -82 11 -26 13 30 14 383 l0 412 -50 0 -50 0 0 45 0 45 226 0 226 0 -5
-397z"/>
<path d="M2860 2022 l0 -122 60 0 59 0 -55 117 c-30 64 -57 119 -59 122 -3 2
-5 -50 -5 -117z"/>
<path d="M3735 2120 c-14 -15 -20 -42 -23 -104 -7 -127 29 -128 41 -1 4 33 9
75 13 93 7 37 -4 42 -31 12z"/>
<path d="M1531 2506 c-21 -25 -31 -128 -31 -324 0 -253 15 -313 75 -298 40 10
47 59 43 335 -3 216 -5 250 -21 274 -19 29 -48 35 -66 13z"/>
<path d="M2031 1615 c-2 -41 -11 -53 -44 -57 -31 -3 -37 -18 -13 -33 34 -21
74 42 63 99 -3 15 -5 13 -6 -9z"/>
</g>
</svg>
